PathFileType	4	(X/Y/Z)	Patient4_TMGait_0pt6_01_left_41.trc.trc
DataRate	CameraRate	NumFrames	NumMarkers	Units	OrigDataRate	OrigDataStartFrame	OrigNumFrames
82.840236686391	82.840236686391	4	33	mm	82.840236686391	18	       141
Frame#	Time	Sacral			L.Shoulder			Chest			R.Shoulder			Neck			R.ASIS			L.ASIS			R.Thigh.Superior			R.Thigh.Lateral			R.Thigh.Inferior			R.Patella			L.Thigh.Superior			L.Thigh.Lateral			L.Thigh.Inferior			L.Patella			L.Shank.Superior			L.Shank.Lateral			L.Shank.Inferior			R.Shank.Superior			R.Shank.Lateral			R.Shank.Inferior			R.Heel			R.Midfoot.Superior			R.Midfoot.Lateral			R.Toe			L.Heel			L.Midfoot.Lateral			L.Midfoot.Superior			L.Toe			L.Elbow			L.Wrist			R.Elbow			R.Wrist			
		X1	Y1	Z1	X2	Y2	Z2	X3	Y3	Z3	X4	Y4	Z4	X5	Y5	Z5	X6	Y6	Z6	X7	Y7	Z7	X8	Y8	Z8	X9	Y9	Z9	X10	Y10	Z10	X11	Y11	Z11	X12	Y12	Z12	X13	Y13	Z13	X14	Y14	Z14	X15	Y15	Z15	X16	Y16	Z16	X17	Y17	Z17	X18	Y18	Z18	X19	Y19	Z19	X20	Y20	Z20	X21	Y21	Z21	X22	Y22	Z22	X23	Y23	Z23	X24	Y24	Z24	X25	Y25	Z25	X26	Y26	Z26	X27	Y27	Z27	X28	Y28	Z28	X29	Y29	Z29	X30	Y30	Z30	X31	Y31	Z31	X32	Y32	Z32	X33	Y33	Z33	

18	50.085214285714	773.690721864890	1010.248960790001	506.437751239276	924.856127052586	1437.454435355953	314.544062317310	1051.698648809990	1364.763215290544	455.423051820627	997.658933017052	1435.798233897205	639.701013248611	928.871932640688	1493.599199571907	468.640768954275	1007.150831464630	937.998760386890	596.436081394798	966.901070133181	963.868775520004	325.160183246505	1004.177425841651	726.224407951167	565.427388344488	904.696796642178	631.704375848515	631.739416261928	960.518304237741	568.443861466436	547.160853266613	943.371107164806	484.986355528882	551.480486950366	1046.170747699229	782.095619200505	353.371717804685	1000.536593279594	652.365991275444	275.795057648624	1107.369589768031	597.871041196927	334.322124506841	1138.086356761042	538.941252599983	329.960970047456	1130.470061709511	468.170088336249	320.466512844357	1082.780992997865	329.256610385673	274.926216325702	1186.608652307366	246.121138893810	326.292355630458	908.925751506254	399.747166117601	558.400840271862	832.762552640037	300.374847427891	620.983621390565	864.478529901963	204.127068678660	553.664891407989	720.973863693940	43.079862109252	520.711532272923	892.099554468336	96.082512040662	558.057736521206	803.365804553271	36.488516339466	596.261617975158	1011.728931983587	42.168741055661	587.188441242926	1130.859143877066	59.264287194281	371.951197157597	1202.450470016659	68.982366297202	290.238729920218	1263.563903489035	155.656817013611	305.052615851161	1399.424608279744	140.659190853355	278.510016143420	790.485725386410	1106.885802610735	221.460003243580	737.422433025021	854.227384219855	233.869516494289	1164.337613272462	1143.570983462482	748.809387236339	1375.699593020210	1261.106002117494	682.984512486108	
19	50.097285714286	774.328979947882	1009.000366487614	504.479334164187	923.749321854063	1436.737638577566	313.116992379024	1050.947645751558	1364.204306183900	453.730071235076	996.846316752401	1434.950831957874	638.068146123287	927.790734936325	1492.604881866630	467.164090852610	1007.670019537442	937.200864694795	594.861024896430	967.746111791027	962.545154358389	323.380174488746	1003.301075085021	725.065648526062	564.447162839075	902.791185229245	631.241563888977	630.763960307512	958.265772649391	567.204587447029	546.552660702126	940.254629347924	483.780251271256	550.734361659458	1047.491544349315	780.918195756498	351.684317287494	1000.498945250656	650.005487953558	275.966188630658	1107.907742358951	595.994840223615	333.241146033797	1137.771823621137	535.716085479444	329.432434210728	1128.820911953476	464.140634141342	321.046469915494	1077.483105166907	326.137008325092	276.851248440981	1179.272357375432	240.919416439214	328.436998695092	905.026794828532	398.965549727300	557.860134988137	827.868911602940	300.509167266643	620.751975780297	858.456223771279	203.806237256210	553.502366892296	713.702419191663	43.234022255723	520.826262010638	884.903053273439	96.071220084885	558.159047735816	796.092935242047	36.473492409769	596.291336723244	1004.453670513410	41.894091962801	587.218635806194	1118.902066824194	56.317268535378	375.374032116066	1190.233572920628	63.865423493571	293.231281793250	1253.836367221927	148.671167669201	307.523235920446	1389.001632972270	129.722532391538	280.228660290670	786.463022806278	1107.824644003276	220.666785575271	731.552397723197	855.511587876961	233.874809652024	1166.782542961494	1145.277429445664	747.040289145768	1373.977336017397	1268.445344487436	679.903734028324	
20	50.109357142857	775.172437960839	1007.560279790229	502.314157280428	922.674555054137	1435.853982511660	311.526454539773	1050.183093553664	1363.603268337582	451.951625968435	995.873897354032	1433.978488675866	636.372340255761	926.702652185143	1491.496021747063	465.563584824773	1008.331802730218	936.272618584494	593.253519288158	968.876223826564	961.075321084153	321.551601550174	1002.762567363702	723.831307977007	563.507866957453	901.177818193830	630.705765693777	629.696450788391	956.411137062376	565.889373240831	545.930251231080	937.492347528243	482.459416746552	549.913833635179	1048.940491484036	779.246356845635	349.959225699974	1000.425367444070	647.395043436074	276.124424408581	1108.213329974095	593.597868979429	332.379147806713	1136.985024499081	531.863788587603	329.279424235900	1126.604148471991	459.540963090337	321.898161777394	1071.374700072959	322.646975748698	278.851062153601	1170.775980481720	235.091026627169	330.916954365489	901.451434799573	398.078008235966	557.245549786919	823.194017245409	300.632292362326	620.456916266484	852.558298532357	203.440619897301	553.311859808362	706.440508263595	43.422956378112	520.961415089795	877.716534656943	96.069819966233	558.261597609067	788.830635580308	36.461136552658	596.314627316274	997.193877795924	41.592247100921	587.266738427217	1105.239191843740	52.974316047113	378.732865998392	1176.493578122098	58.379556821481	296.349655197977	1242.755722595042	140.983668150741	310.552185538796	1377.187573911721	117.720044301071	282.772528377743	783.046321544959	1108.320620536732	219.719839943425	726.893531984524	856.221841114046	233.614007502312	1168.560685490661	1146.445819408333	745.348789691230	1372.073132946287	1274.311471706769	677.034103125535	
21	50.121428571429	776.194180276929	1005.985647645632	499.951248836285	921.676364141013	1434.832947170717	309.762926306095	1049.435862607570	1362.986699200577	450.092015220400	994.762747599005	1432.911752059082	634.615148492557	925.643287597985	1490.311026574581	463.831439526544	1009.138110217425	935.225053273908	591.588282104948	970.256121956920	959.518846671030	319.675091948674	1002.548320019912	722.530846266735	562.571256463248	899.848937394692	630.106508320178	628.505065853506	954.932468181620	564.514647582085	545.248239310911	935.070319072359	481.031673875061	548.987282411205	1050.396700694020	777.085130091794	348.222872750684	1000.216773711236	644.609976502378	276.229083677671	1108.172354429649	590.750882730557	331.775197652432	1135.642436854188	527.548422993034	329.512087813321	1123.833622295047	454.593141707121	322.959869795352	1064.719240117410	318.930863013447	280.873357265352	1161.556200822441	228.984238702071	333.638320292231	898.175401050770	397.097964282366	556.534165331526	818.724362137540	300.759974159825	620.081678370812	846.777113904070	203.048845042922	553.087594662267	699.187343352536	43.674740283494	521.122833977089	870.546519788182	96.084151438914	558.363316729634	781.580631424982	36.462846314800	596.334298192725	989.954552700784	41.268967076331	587.334395540274	1090.632328818302	49.514233885389	381.961761687577	1161.960425449136	52.913283687492	299.500451758526	1230.925189040996	133.057633490104	314.043223360809	1364.592664970229	105.308689906335	286.004411278679	780.293553757938	1108.369835772726	218.601630926286	723.458632495849	856.360255587614	233.063175246917	1169.647466170762	1147.025199239127	743.730578687891	1370.044817507163	1278.696238768715	674.387975064221	
